<?xml version="1.0" encoding="UTF-8" standalone="no"?>
<svg
   height="24px"
   viewBox="0 -960 960 960"
   width="24px"
   fill="#000000"
   version="1.1"
   id="svg1"
   sodipodi:docname="redo_24dp_000000_FILL0_wght400_GRAD0_opsz24.svg"
   inkscape:version="1.4.3 (0d15f75, 2025-12-25)"
   xmlns:inkscape="http://www.inkscape.org/namespaces/inkscape"
   xmlns:sodipodi="http://sodipodi.sourceforge.net/DTD/sodipodi-0.dtd"
   xmlns="http://www.w3.org/2000/svg"
   xmlns:svg="http://www.w3.org/2000/svg">
  <defs
     id="defs1" />
  <sodipodi:namedview
     id="namedview1"
     pagecolor="#ffffff"
     bordercolor="#000000"
     borderopacity="0.25"
     inkscape:showpageshadow="2"
     inkscape:pageopacity="0.0"
     inkscape:pagecheckerboard="0"
     inkscape:deskcolor="#d1d1d1"
     inkscape:zoom="47.208333"
     inkscape:cx="12"
     inkscape:cy="12"
     inkscape:window-width="3440"
     inkscape:window-height="1351"
     inkscape:window-x="2391"
     inkscape:window-y="-9"
     inkscape:window-maximized="1"
     inkscape:current-layer="svg1" />
  <path
     d="m 564,-800 c 64.66667,0 120.16667,21 166.5,63 46.33333,42 69.5,94.33333 69.5,157 0,62.66667 -23.16667,115 -69.5,157 -46.33333,42 -101.83333,63 -166.5,63 H 312 l 104,104 -56,56 -200,-200 200,-200 56,56 -104,104 h 252 c 42,0 78.5,-13.33333 109.5,-40 31,-26.66667 46.5,-60 46.5,-100 0,-40 -15.5,-73.33333 -46.5,-100 -31,-26.66667 -67.5,-40 -109.5,-40 z"
     id="path1"
     sodipodi:nodetypes="ssssscccccccssssss" />
</svg>
