<?xml version="1.0" encoding="UTF-8" standalone="no"?>
<svg
   height="48px"
   viewBox="0 -960 960 960"
   width="48px"
   fill="#FFFFFF"
   version="1.1"
   id="svg1"
   sodipodi:docname="enter.svg"
   inkscape:version="1.4.3 (0d15f75, 2025-12-25)"
   xmlns:inkscape="http://www.inkscape.org/namespaces/inkscape"
   xmlns:sodipodi="http://sodipodi.sourceforge.net/DTD/sodipodi-0.dtd"
   xmlns="http://www.w3.org/2000/svg"
   xmlns:svg="http://www.w3.org/2000/svg">
  <defs
     id="defs1" />
  <sodipodi:namedview
     id="namedview1"
     pagecolor="#000000"
     bordercolor="#000000"
     borderopacity="0.25"
     inkscape:showpageshadow="2"
     inkscape:pageopacity="0.0"
     inkscape:pagecheckerboard="0"
     inkscape:deskcolor="#d1d1d1"
     inkscape:zoom="23.604167"
     inkscape:cx="24"
     inkscape:cy="24"
     inkscape:window-width="3440"
     inkscape:window-height="1351"
     inkscape:window-x="2391"
     inkscape:window-y="-9"
     inkscape:window-maximized="1"
     inkscape:current-layer="svg1" />
  <path
     d="m 568,-800 c 63.33333,0 117.83333,21.33333 163.5,64 45.66667,42.66667 68.5,95.33333 68.5,158 0,62.66667 -22.83333,115.33333 -68.5,158 -45.66667,42.66667 -100.16667,64 -163.5,64 H 274 l 114,114 -42,42 -186,-186 186,-186 42,42 -114,114 h 295 c 46.66667,0 86.83333,-15.5 120.5,-46.5 33.66667,-31 50.5,-69.5 50.5,-115.5 0,-46 -16.83333,-84.5 -50.5,-115.5 -33.66667,-31 -73.83333,-46.5 -120.5,-46.5 z"
     id="path1"
     sodipodi:nodetypes="ssssscccccccssssss" />
</svg>
